<?xml version="1.0" encoding="utf-8"?>
<!-- Generator: Adobe Illustrator 21.0.0, SVG Export Plug-In . SVG Version: 6.00 Build 0)  -->
<svg version="1.1" id="Layer_1" xmlns="http://www.w3.org/2000/svg" xmlns:xlink="http://www.w3.org/1999/xlink" x="0px" y="0px"
	 viewBox="0 0 510.2 495.6" style="enable-background:new 0 0 510.2 495.6;" xml:space="preserve">
<style type="text/css">
	.st0{fill:#FFFFFF;}
	.st1{fill:#808285;stroke:#FFFFFF;stroke-width:9;stroke-linecap:round;stroke-linejoin:round;stroke-miterlimit:10;}
	.st2{fill:#8ACC9E;}
	.st3{fill:#8FD6E7;}
	.st4{fill:#5EBCE9;}
	.st5{fill:none;stroke:#000000;stroke-width:0.25;stroke-miterlimit:10;}
	.st6{fill:#EC7685;}
	.st7{display:none;}
	.st8{display:inline;}
	.st9{display:inline;fill:#8ACC9E;}
	.st10{display:inline;fill:#5EBCE9;}
	.st11{fill:#9D2B6D;}
	.st12{display:inline;fill:#DAC226;}
	.st13{display:inline;fill:#18868F;}
	.st14{fill:none;stroke:#000000;stroke-width:0.5;stroke-miterlimit:10;}
	.st15{fill:#DAC226;}
	.st16{fill:#18868F;}
	.st17{fill:#48484A;}
	.st18{fill:none;stroke:#000000;stroke-width:0.75;stroke-miterlimit:10;}
	.st19{fill:#4D4D4A;}
	.st20{fill:#D1C336;}
	.st21{fill:#1F869A;}
	.st22{fill:#9E256F;}
	.st23{fill:#EAE363;}
	.st24{fill:#44789D;}
	.st25{fill:#AC615A;}
	.st26{fill:#7299B5;}
	.st27{fill:#A2BCCF;}
	.st28{fill:#4D6B86;}
	.st29{fill:#4E5D6E;}
	.st30{fill:none;stroke:#000000;stroke-width:2;stroke-linecap:round;stroke-linejoin:round;stroke-miterlimit:10;}
	.st31{fill:#9F9EA7;stroke:#9F9EA7;stroke-width:3;stroke-linecap:round;stroke-linejoin:round;stroke-miterlimit:10;}
	.st32{fill:#B4B1B9;}
	.st33{fill:#9F9EA7;stroke:#9F9EA7;stroke-miterlimit:10;}
	.st34{fill:#9F9EA7;stroke:#9F9EA7;stroke-width:2;stroke-miterlimit:10;}
	.st35{fill:#9F9EA7;stroke:#9F9EA7;stroke-width:2.5;stroke-miterlimit:10;}
	.st36{fill:#B3B2B5;stroke:#B3B2B5;stroke-width:0.25;stroke-miterlimit:10;}
	.st37{fill:#B3B2B5;stroke:#B3B2B5;stroke-width:2;stroke-linecap:round;stroke-linejoin:round;stroke-miterlimit:10;}
	.st38{fill:#B3B2B5;}
	.st39{fill:#4D4D4A;stroke:#B3B2B5;stroke-width:2;stroke-linecap:round;stroke-linejoin:round;stroke-miterlimit:10;}
	.st40{fill:#AC615A;stroke:#AC615A;stroke-width:2;stroke-linecap:round;stroke-linejoin:round;stroke-miterlimit:10;}
	.st41{fill:#44789D;stroke:#44789D;stroke-width:2;stroke-linecap:round;stroke-linejoin:round;stroke-miterlimit:10;}
	.st42{fill:#EAE363;stroke:#EAE363;stroke-width:2;stroke-linecap:round;stroke-linejoin:round;stroke-miterlimit:10;}
	.st43{fill:#8C8E90;}
	.st44{fill:none;stroke:#4D4D4A;stroke-width:2;stroke-linecap:round;stroke-linejoin:round;stroke-miterlimit:10;}
	.st45{fill:#8C8E90;stroke:#8C8E90;stroke-miterlimit:10;}
</style>
<g>
	<path class="st23" d="M412.9,183.6c-11.5-9.7-24.1-13.9-36.5-13.9c-10.8,0-21.5,3.2-31.3,8.6c1.5,10.2,1.8,20.8,0.7,31.5
		c-2.7,26.1-13.6,48.1-23.2,67.6l-1.7,3.4c-11.3,22.9-20.3,44.6-27.3,65.6c18.4-10.7,37.5-20.2,57.2-28.9c19.9-8.7,40-17,55.8-32.4
		C435.4,257.4,446.9,212.2,412.9,183.6z"/>
	<g>
		<path class="st24" d="M255.1,125C255.1,125,255.1,125,255.1,125c-28.3,0-46.7,17.1-55.4,39.8c8,7,15.4,15.1,21.6,24.3
			c14.7,21.7,20.5,45.6,25.7,66.7l0.9,3.7c5.9,24.2,12.8,46.2,20.7,66.4c7.2-19.9,15.6-39.3,25.1-58.5c9.6-19.5,19.7-38.8,21.9-60.7
			C319.7,167.1,299.5,125.1,255.1,125z"/>
	</g>
	<path class="st25" d="M103.6,284.1c15.9,15.4,35.9,23.8,55.9,32.5c33.8,14.8,65.8,32,95.6,53.9c-16.4-33.3-27.8-67.8-36.6-103.7
		c-5.2-21.1-9.8-42.3-22.2-60.6c-14.8-21.8-38.4-37.6-62.5-37.6c-12.4,0-24.9,4.2-36.5,13.8C63.3,211,74.9,256.4,103.6,284.1z"/>
</g>
</svg>
