<?xml version="1.0" encoding="utf-8"?>
<!-- Generator: Adobe Illustrator 21.0.0, SVG Export Plug-In . SVG Version: 6.00 Build 0)  -->
<svg version="1.1" id="Camada_1" xmlns="http://www.w3.org/2000/svg" xmlns:xlink="http://www.w3.org/1999/xlink" x="0px" y="0px"
	 viewBox="0 0 287.9 118.4" style="enable-background:new 0 0 287.9 118.4;" xml:space="preserve">
<style type="text/css">
	.st0{fill-rule:evenodd;clip-rule:evenodd;fill:#B7D433;}
	.st1{fill-rule:evenodd;clip-rule:evenodd;fill:#004062;}
</style>
<g>
	<path class="st0" d="M103.5,70.1C89.3,82.5,78,74.7,69.1,75.7c-14.8,1.7-17,17.4-17,17.4s9.2,7.1,23.4,4.1
		c11.3-2.4,19.9-10.3,19.9-10.3s-3.5,10.7-15,14.5c-15.5,5.2-27.3-1.1-27.3-1.1s10.8,18,28.6,14.4c16.6-3.4,23.8-15.3,28-25.5
		c6-14.7,2.4-28.7,2.4-28.7C109.1,64.6,106.3,67.7,103.5,70.1z"/>
	<path class="st1" d="M141.3,74.1c0,2.7,0.5,5,1.6,7c1,1.9,2.4,3.5,4.2,4.7c1.7,1.2,3.7,2.1,5.8,2.7c2.1,0.6,4.3,0.9,6.5,0.9
		c2.3,0,5.2-0.4,8.6-1.3c3.5-0.9,6.4-1.9,8.9-3.2l-5.2-9.3c-2.2,1-4,1.8-5.6,2.2c-1.5,0.5-3.2,0.7-5.1,0.7c-1.6,0-2.8-0.2-3.7-0.6
		c-0.9-0.4-1.5-1.1-1.9-2c-0.4-0.9-0.6-2.1-0.7-3.6c-0.1-1.5-0.1-3.2-0.1-5.4l-0.1-32.7l18.1-0.1l0-10.1l-18.1,0.1l-0.1-21.9
		l-13.2,6.9l0.1,15l-12.3,0l0,10.1l12.3,0L141.3,74.1z"/>
	<path class="st1" d="M194.5,42c1.9-3.5,4.2-5.8,7-6.9c2.8-1.1,5.5-1.7,8.1-1.7c3.8,0,7.2,1.2,10.4,3.7l6.8-11c-2-1.5-4.3-2.6-7-3.3
		c-2.7-0.8-5.9-1.1-9.7-1.1c-3.7,0-7.2,0.7-10.6,2c-3.4,1.3-6.2,2.8-8.4,4.4l-0.4,0l-9.5-5.4l0.3,65.4l13.2-0.1L194.5,42z"/>
	<path class="st1" d="M221.7,56.5c0,4.8,0.9,9.3,2.7,13.3c1.8,4,4.3,7.4,7.5,10.3c3.2,2.9,7.1,5.1,11.7,6.7
		c4.6,1.6,9.6,2.4,15.2,2.3c3.5,0,7.7-0.5,12.6-1.4c4.9-1,9.5-2.4,13.7-4.3l-5.5-10.1c-4.8,1.6-8.6,2.7-11.5,3.3
		c-2.9,0.7-5.9,1-8.8,1c-7.3,0-13.1-1.9-17.3-5.8c-4.2-3.9-6.4-9.1-6.4-15.7c0-3.3,0.5-6.4,1.6-9.1c1.1-2.7,2.6-5.1,4.7-7.1
		c2-2,4.4-3.5,7.2-4.6c2.8-1.1,5.9-1.7,9.4-1.7c1.4,0,2.7,0.1,4,0.2c1.3,0.1,2.7,0.4,4.2,0.7c1.5,0.4,3.2,0.8,5.1,1.3
		c1.8,0.5,4,1.3,6.5,2.2l5.3-10.1c-4.4-1.8-8.9-3.3-13.5-4.3c-4.6-1-8.6-1.6-11.8-1.5c-5.3,0-10.1,0.9-14.6,2.6
		c-4.5,1.7-8.4,4.1-11.6,7.1c-3.2,3-5.7,6.6-7.5,10.8C222.6,46.9,221.7,51.5,221.7,56.5z"/>
	<path class="st1" d="M148.3,104.5c-1-0.8-3-1.5-5.8-1.9c-0.9-0.1-1.6-0.3-2.3-0.4c-0.6-0.1-1.2-0.3-1.6-0.4
		c-0.9-0.3-1.3-0.7-1.3-1.2c0-0.5,0.3-0.9,0.9-1.1c0.6-0.2,1.5-0.3,2.5-0.3c1.2,0,2.5,0.2,4,0.5c0.5,0.1,0.9,0.2,1.4,0.3
		c0.5,0.1,0.8,0.1,1.1,0.2c0.3,0,0.4,0.1,0.4,0.1l0.4-3.3c-0.4-0.1-0.8-0.2-1.4-0.3c-0.5-0.1-1.1-0.2-1.8-0.3
		c-1.3-0.2-2.7-0.3-4-0.3c-2.7,0-4.9,0.5-6.4,1.3c-1.5,0.9-2.3,2.2-2.3,3.9c0,1.4,0.6,2.5,1.8,3.3c1.2,0.8,3.3,1.4,6.3,1.9
		c0.9,0.1,1.7,0.3,2.3,0.4c0.6,0.1,1,0.3,1.3,0.4c0.5,0.3,0.8,0.6,0.8,1.1c0,0.6-0.3,1-1,1.3c-0.7,0.3-1.5,0.4-2.6,0.4
		c-0.7,0-1.5,0-2.3-0.1c-0.8,0-1.6-0.2-2.5-0.4c-0.4-0.1-0.8-0.2-1-0.2c-0.2,0-0.4-0.1-0.6-0.1c-0.2,0-0.3,0-0.4-0.1
		c-0.1,0-0.3-0.1-0.5-0.2l-0.9,3.4c0.3,0,0.7,0.1,1.2,0.2c0.5,0.1,1.2,0.2,2,0.3c1.6,0.2,3.2,0.3,4.7,0.3c2.8,0,5-0.5,6.7-1.4
		c1.6-0.9,2.4-2.3,2.4-4C149.9,106.4,149.4,105.3,148.3,104.5z"/>
	<path class="st1" d="M161.2,108.7c-0.3,0.2-0.6,0.3-0.9,0.4c-0.3,0.1-0.6,0.3-1,0.4c-0.7,0.2-1.3,0.4-1.7,0.4
		c-0.7,0-1.2-0.2-1.5-0.6c-0.3-0.4-0.5-1.1-0.5-1.9l0-8.1l-4.9,0l0,9.2c0,1.5,0.4,2.7,1.2,3.4c0.8,0.8,1.9,1.2,3.5,1.2
		c1.1,0,2.2-0.2,3.1-0.6c0.9-0.4,1.9-0.8,2.8-1.5l0.3,1.7l4.3,0L166,99.3l-4.9,0L161.2,108.7z"/>
	<path class="st1" d="M175.7,105.1c-1.3-0.4-2.3-0.8-3-1.2c-0.6-0.3-0.9-0.7-0.9-1.2c0-0.3,0.2-0.6,0.5-0.9c0.3-0.3,0.8-0.4,1.3-0.4
		c0.4,0,0.9,0.1,1.4,0.3c0.5,0.2,0.9,0.4,1.4,0.6c0.2,0.1,0.4,0.2,0.6,0.3c0.2,0.1,0.3,0.1,0.4,0.2c0.1,0,0.2,0.1,0.2,0.1
		c0.1,0,0.1,0,0.2,0.1l0.7-3c-0.2-0.1-0.6-0.2-1.1-0.4c-0.5-0.1-0.9-0.3-1.4-0.4c-0.8-0.2-1.7-0.3-2.6-0.3c-1.8,0-3.3,0.4-4.4,1.1
		c-1.1,0.7-1.7,1.8-1.7,3.2c0,1.3,0.5,2.3,1.6,2.9c1,0.6,1.9,1,2.7,1.2c1.1,0.3,2,0.6,2.6,0.9c0.7,0.3,1,0.7,1,1.2
		c0,0.4-0.2,0.7-0.6,0.9c-0.4,0.2-0.9,0.3-1.5,0.3c-0.3,0-0.7-0.1-1.3-0.2c-0.6-0.1-1.1-0.3-1.7-0.4c-0.6-0.2-1.3-0.4-2.1-0.6
		l-0.7,3c0.4,0.1,0.8,0.2,1.1,0.2c0.3,0.1,0.6,0.1,1,0.2c0.3,0.1,0.6,0.1,0.9,0.1c1,0.1,2.1,0.2,3.2,0.2c1.9,0,3.4-0.4,4.5-1.1
		c1.1-0.7,1.6-1.7,1.6-3c0-1-0.3-1.8-1-2.4C177.8,106,176.9,105.5,175.7,105.1z"/>
	<path class="st1" d="M190.1,109.6c-0.1,0-0.2,0-0.3,0.1c-0.4,0.1-0.9,0.2-1.5,0.2c-0.5,0-0.9-0.2-1.2-0.5c-0.3-0.3-0.4-0.7-0.4-1.3
		l0-6.3l4.1,0l0-2.6l-4.1,0l0-4.7l-4.9,0.7l0,3.9l-3.2,0l0,2.6l3.2,0l0,7.5c0,1.4,0.4,2.3,1.2,2.9c0.8,0.6,2.1,0.9,3.9,0.9
		c0.4,0,0.7,0,1.1-0.1c0.4,0,0.8-0.1,1.2-0.2c0.8-0.2,1.3-0.3,1.6-0.4l-0.7-2.8C190.2,109.6,190.1,109.6,190.1,109.6z"/>
	<path class="st1" d="M197.5,98.8c-2.1,0-3.8,0.7-5.1,2c-1.3,1.3-2,2.9-2,4.9c0,2.3,0.8,4.1,2.3,5.4c1.5,1.3,3.6,1.9,6.2,1.9
		c0.9,0,1.6-0.1,2.3-0.2c0.7-0.1,1.4-0.4,2.1-0.8l-1.1-2.4c-0.4,0.2-0.8,0.3-1.2,0.4c-0.4,0-0.8,0.1-1.3,0.1c-1.6,0-2.8-0.3-3.6-1
		c-0.5-0.4-0.9-1.1-1.1-2l9.3,0l0-1.2c0-2.1-0.6-3.8-1.9-5.1C201.3,99.4,199.6,98.8,197.5,98.8L197.5,98.8z M199.8,105L199.8,105
		l-4.8,0c0.1-1,0.3-1.8,0.6-2.3c0.4-0.8,1-1.2,1.9-1.2c0.7,0,1.3,0.3,1.7,0.9c0.4,0.6,0.6,1.4,0.6,2.4L199.8,105z"/>
	<path class="st1" d="M216.1,98.7c-1.1,0-2.2,0.2-3.2,0.6c-1,0.3-1.9,0.8-2.7,1.5l-0.4-1.7l-4.2,0l0.1,13.5l4.9,0l0-9.4
		c0.2-0.2,0.7-0.4,1.4-0.7c0.7-0.3,1.5-0.5,2.2-0.5c0.5,0,1,0.2,1.3,0.7c0.3,0.5,0.5,1.1,0.5,1.8l0,8.1l4.9,0l0-9
		c0-1.6-0.4-2.8-1.2-3.6C218.9,99.1,217.7,98.7,216.1,98.7z"/>
	<path class="st1" d="M232.3,109.4c-0.1,0-0.2,0-0.3,0.1c-0.4,0.1-0.9,0.2-1.5,0.2c-0.5,0-0.9-0.2-1.2-0.5c-0.3-0.3-0.4-0.7-0.4-1.3
		l0-6.3l4.1,0l0-2.6l-4.1,0l0-4.7l-4.9,0.7l0,3.9l-3.2,0l0,2.6l3.2,0l0,7.5c0,1.4,0.4,2.3,1.2,2.9c0.8,0.6,2.1,0.9,3.9,0.9
		c0.4,0,0.7,0,1.1-0.1c0.4,0,0.8-0.1,1.2-0.2c0.8-0.2,1.3-0.3,1.6-0.4l-0.7-2.8C232.3,109.4,232.3,109.4,232.3,109.4z"/>
	<polygon class="st1" points="237.3,96.7 241,96.7 246.6,90.9 241.1,90.9 	"/>
	<path class="st1" d="M248,110.1c-0.2-0.2-0.3-0.3-0.3-0.5l0-5.4c0-2-0.6-3.4-1.8-4.3c-1.1-0.9-3-1.3-5.5-1.3c-1.6,0-3,0.3-4.4,0.8
		c-0.4,0.2-0.7,0.3-1,0.4c-0.2,0.1-0.4,0.2-0.5,0.3l1.1,2.3c0.4-0.1,0.8-0.3,1.3-0.4c1-0.3,2-0.5,3.1-0.5c0.9,0,1.7,0.2,2.2,0.6
		c0.5,0.4,0.8,1,0.8,1.8l0,0.8c0,0-0.2,0-0.6,0c-0.4,0-0.9,0-1.6,0c-0.7,0-1.4,0-2.2,0.1c-0.8,0.1-1.5,0.2-2.3,0.4
		c-0.8,0.2-1.4,0.4-1.9,0.7c-1.3,0.8-2,1.9-2,3.2c0,1.2,0.5,2.2,1.3,2.9c0.9,0.7,2.2,1.1,3.8,1.1c1,0,2.1-0.2,3.2-0.5
		c1.1-0.3,2-0.8,2.9-1.3c0,0.1,0.1,0.2,0.4,0.4c0.3,0.2,0.6,0.4,0.9,0.6c0.3,0.2,0.7,0.4,1.2,0.7l2.7-2.1c0,0-0.1-0.1-0.3-0.2
		C248.4,110.4,248.2,110.2,248,110.1L248,110.1z M243.1,109.2L243.1,109.2c-0.1,0.1-0.3,0.2-0.6,0.3c-0.2,0.1-0.5,0.2-0.9,0.4
		c-0.4,0.1-0.7,0.2-1.1,0.3c-0.4,0.1-0.8,0.1-1.2,0.1c-0.8,0-1.3-0.1-1.7-0.4c-0.4-0.2-0.6-0.6-0.6-1.1c0-0.6,0.4-1.1,1.3-1.5
		c0.7-0.3,1.5-0.5,2.4-0.5c0.9,0,1.7-0.1,2.4-0.1L243.1,109.2z"/>
	<polygon class="st1" points="260.1,98.9 256.6,107.4 253.2,98.9 248.2,98.9 254.8,112.8 258.1,112.8 264.6,98.9 	"/>
	<path class="st1" d="M270.7,98.5c-2.1,0-3.8,0.7-5.1,2c-1.3,1.3-2,2.9-2,4.9c0,2.3,0.8,4.1,2.3,5.4c1.5,1.3,3.6,1.9,6.2,1.9
		c0.9,0,1.6-0.1,2.3-0.2c0.7-0.1,1.4-0.4,2.1-0.8l-1.1-2.4c-0.4,0.2-0.8,0.3-1.2,0.4c-0.4,0-0.8,0.1-1.3,0.1c-1.6,0-2.8-0.3-3.6-1
		c-0.5-0.4-0.9-1.1-1.1-2l9.3,0l0-1.2c0-2.1-0.6-3.8-1.9-5.1C274.5,99.1,272.8,98.5,270.7,98.5L270.7,98.5z M273,104.7L273,104.7
		l-4.8,0c0.1-1,0.3-1.8,0.6-2.3c0.4-0.8,1-1.2,1.9-1.2c0.7,0,1.3,0.3,1.7,0.9c0.4,0.6,0.6,1.4,0.6,2.4L273,104.7z"/>
	<rect x="278.7" y="93.9" transform="matrix(1 -3.900767e-03 3.900767e-03 1 -0.4 1.0975)" class="st1" width="4.9" height="18.5"/>
	<path class="st1" d="M51.9,104.4C28.6,103.8,9.4,89.5,5.8,67.6c-0.4-2.3-0.5-2.9-0.5-5.1C5.2,62.6,5,62.8,4.9,63c0,0,0-0.1-0.1-0.3
		c-0.3,3.8-0.1,4.9,0.5,8.8C9.8,98.9,36.3,119,66,115.7C59,113.3,53.6,107.4,51.9,104.4z"/>
	<path class="st1" d="M55.1,9.2c-6,0.8-9.6,1.7-14.8,4.1c0.1,0,0.2,0.1,0.3,0.1c3.5-1.3,5.4-1.5,9.3-2.1
		c26.7-3.7,49.6,12.5,53.6,37.1c1,6.2,1.2,11-0.4,16.7c2.7-2.4,7.2-7,10.1-11.1c0,0,6.4,11.6,2.2,26.6c5.6-10.1,6.8-19.1,5.1-29.5
		C115.9,23.2,85.5,4.9,55.1,9.2z"/>
	<path class="st0" d="M5,60.1c0.1-0.2,0.2-0.4,0.3-0.6c1.9-3.3,3.9-5.9,5.8-7.9c10.5-11.2,20.4-5.7,27.6-7.2C50.6,41.9,51,29,51,29
		s-8.2-5.1-19.5-1.6c-9,2.9-15.3,9.9-15.3,9.9s1.9-9,10.9-13c12.2-5.4,22.4-1.2,22.4-1.2s-4.2-5.5-10.8-8.5c-0.1,0-0.2-0.1-0.3-0.1
		c-3.8-1.7-8.4-2.5-13.5-0.9c-13.3,4-18.1,14.3-20.5,22.9C1.1,47.8,4.3,58.1,4.9,59.8C4.9,60,5,60.1,5,60.1z"/>
</g>
</svg>
