<?xml version="1.0" encoding="utf-8"?>
<!-- Generator: Adobe Illustrator 21.0.0, SVG Export Plug-In . SVG Version: 6.00 Build 0)  -->
<svg version="1.1" id="Layer_1" xmlns="http://www.w3.org/2000/svg" xmlns:xlink="http://www.w3.org/1999/xlink" x="0px" y="0px"
	 viewBox="0 0 151 30" style="enable-background:new 0 0 151 30;" xml:space="preserve">
<style type="text/css">
	.st0{fill:#003B79;}
	.st1{fill:#0091CF;}
</style>
<g>
	<polygon class="st0" points="72.8,2.4 93,2.4 93,8.5 79.8,8.5 79.8,12.8 91.7,12.8 91.7,18.6 79.8,18.6 79.8,27.6 72.8,27.6 	"/>
	<polygon class="st0" points="121.8,2.4 129.6,2.4 135.4,18.3 141.1,2.4 148.8,2.4 138.5,27.6 132,27.6 	"/>
	<polygon class="st1" points="38.2,10.6 46.9,2.5 66.5,2.5 49.9,17.9 	"/>
	<polygon class="st0" points="2.2,2.5 22.4,2.5 44.3,27.6 24.1,27.6 	"/>
	<path class="st0" d="M109,28.1c-2,0-3.8-0.3-5.5-1c-1.7-0.6-3.1-1.5-4.3-2.7c-1.2-1.2-2.2-2.5-2.9-4.1c-0.7-1.6-1-3.4-1-5.3V15
		c0-1.8,0.3-3.5,1-5.1c0.7-1.6,1.6-3,2.8-4.2c1.2-1.2,2.6-2.1,4.3-2.8c1.7-0.7,3.5-1,5.4-1c2.2,0,4.2,0.3,5.8,1
		c1.6,0.6,3.1,1.5,4.4,2.7l-4.1,4.9c-0.9-0.8-1.8-1.4-2.8-1.8c-0.9-0.4-2-0.6-3.3-0.6c-0.9,0-1.8,0.2-2.5,0.5
		c-0.8,0.4-1.5,0.9-2,1.5c-0.6,0.6-1,1.4-1.4,2.2c-0.3,0.8-0.5,1.7-0.5,2.7v0.1c0,1,0.2,1.9,0.5,2.8c0.3,0.9,0.8,1.6,1.4,2.2
		c0.6,0.6,1.3,1.1,2.2,1.4c0.8,0.3,1.8,0.5,2.8,0.5c1.6,0,3-0.3,4-1V18h-5v-5.1h11.6v11.3c-1.3,1.1-2.9,2-4.8,2.8
		C113.4,27.7,111.3,28.1,109,28.1"/>
</g>
</svg>
