<?xml version="1.0" encoding="utf-8"?>
<!-- Generator: Adobe Illustrator 21.0.0, SVG Export Plug-In . SVG Version: 6.00 Build 0)  -->
<svg version="1.1" id="Layer_1" xmlns="http://www.w3.org/2000/svg" xmlns:xlink="http://www.w3.org/1999/xlink" x="0px" y="0px"
	 viewBox="0 0 173.3 174.4" style="enable-background:new 0 0 173.3 174.4;" xml:space="preserve">
<style type="text/css">
	.st0{fill-rule:evenodd;clip-rule:evenodd;fill:#38AFDF;}
	.st1{fill-rule:evenodd;clip-rule:evenodd;fill:#163258;}
</style>
<g>
	<path class="st0" d="M35.6,144.5C49.2,156.6,67.1,164,86.8,164c5.3,0,10.5-0.5,15.4-1.6l6.8,1.1c-7,2-14.5,3.1-22.2,3.1
		c-21.4,0-40.8-8.4-55.1-22.2H35.6L35.6,144.5z M115.3,15.5c-8.8-3.5-18.4-5.5-28.5-5.5C81,10,75.4,10.6,70,11.8
		c-1-0.7-2.1-1.3-3.2-2c6.4-1.7,13.1-2.5,20-2.5c11.4,0,22.3,2.4,32.1,6.7C117.6,14.5,116.4,14.9,115.3,15.5L115.3,15.5z
		 M160.9,107.8c1.9-6.6,2.9-13.6,2.9-20.8c0-9.2-1.6-18-4.5-26.1c0.7-0.6,1.4-1.3,2.1-2c3.3,8.7,5.1,18.2,5.1,28.1
		c0,7.2-1,14.2-2.8,20.8H160.9L160.9,107.8z M20.6,47.6C13.8,59.1,9.8,72.6,9.8,87c0,7.2,1,14.2,2.9,20.8H9.9
		C8.1,101.2,7.1,94.2,7.1,87c0-15.3,4.3-29.5,11.7-41.6C19.4,46.1,20,46.9,20.6,47.6z"/>
	<path class="st1" d="M118.7,165c-9.8,4-20.6,6.3-31.9,6.3c-23.3,0-44.3-9.4-59.6-24.7c-0.7-0.7-1.4-1.4-2-2.1h3.4
		c14.8,15,35.4,24.3,58.2,24.3c9.5,0,18.5-1.6,27-4.6L118.7,165L118.7,165z M86.8,2.7c14.2,0,27.5,3.5,39.3,9.7
		c-1.4,0.2-2.7,0.5-4,0.8c-10.7-5.1-22.6-8-35.3-8c-7.9,0-15.6,1.1-22.9,3.2c-1.2-0.5-2.3-1-3.6-1.5C68.7,4.2,77.5,2.7,86.8,2.7
		L86.8,2.7z M164.7,54.7c4.1,9.9,6.4,20.8,6.4,32.2c0,7.2-0.9,14.2-2.6,20.8h-2.6c1.7-6.7,2.7-13.6,2.7-20.8c0-10.6-2-20.6-5.6-29.9
		C163.6,56.3,164.1,55.5,164.7,54.7L164.7,54.7z M5.1,107.8C3.4,101.1,2.5,94.2,2.5,87c0-16.9,5-32.7,13.6-45.9
		c0.4,0.8,0.9,1.6,1.4,2.4C9.6,56,5,71,5,87c0,7.2,0.9,14.2,2.7,20.8H5.1z"/>
	<path class="st0" d="M49.8,149.8v-9h9.2c2.6,0,3.9,0.7,3.9,2v5c0,0.1,0,0.2,0,0.3c-0.3,1.1-1.5,1.6-3.7,1.6H49.8L49.8,149.8z
		 M53.6,147.8h4c0.4,0,0.7,0,0.9-0.1c0.3-0.1,0.4-0.3,0.5-0.6c0,0,0-0.1,0-0.1v-3.9c-0.1-0.3-0.6-0.4-1.4-0.4h-3.9V147.8L53.6,147.8
		z M65.2,142.7c0-0.2,0-0.3,0.1-0.5c0.4-1,1.7-1.4,4-1.4h4.6c2.7,0,4,0.6,4,1.9v5.1c0,1.3-1.3,1.9-4,1.9h-4.5
		c-1.2,0-2.1-0.1-2.7-0.3c-0.6-0.2-1-0.6-1.2-1.1c-0.1-0.2-0.1-0.3-0.1-0.5L65.2,142.7L65.2,142.7z M69,143.3l0,3.9
		c0,0.4,0.4,0.6,1.3,0.6h2.4c0.8,0,1.3-0.2,1.3-0.5v-3.9c0-0.4-0.4-0.6-1.3-0.6h-2.4C69.5,142.7,69,142.9,69,143.3z"/>
	<path class="st0" d="M70.3,58.6c-1.2-1.5-2.5-3.1-3.7-4.6c-10.2,3.9-23.4,2.6-35.3-5.9c-11.9-8.5-16.8-23.9-6.4-32.7
		C35.3,6.7,57.2,9.6,69,19.6c11.9,10,12.6,20.8,6.1,28.5c1.6,0.8,3.1,1.5,4.7,2.3c11.8,5.6,12.7,5.6,24.4,2c1.5-0.5,3.1-1,4.6-1.5
		c-6.5-8.8-6-19.4,5.5-27.2c11.5-7.8,32.4-6.5,42.3,3.8c9.9,10.3,5.6,24.3-5.4,30.6c-11.1,6.3-23.8,5.6-33.8,0.1
		c-1.2,1.3-2.4,2.6-3.6,4c-5.9,6.9-5.2,7.6-0.1,15c0.7,1,1.4,2,2.1,3c10.2-3.4,22.7-1.9,30.6,4.8c7.9,6.7,6.1,16.7-3.8,21.6
		c-9.9,4.9-24.5,3.5-32.7-2.3c-8.2-5.8-8.7-13.5-2.6-19.3c-1.8-0.8-3.6-1.6-5.4-2.4c-9.3-4.1-10-4.1-19.3-1.5
		c-1.8,0.5-3.7,1.1-5.4,1.6c6.3,6.8,6,14.4-2.2,19.1c-8.2,4.7-23.3,4.1-33.8-2.4c-10.6-6.5-12.7-17.2-4.5-22.8
		c8.2-5.6,21.2-5.1,31.8,0c0.7-0.9,1.4-1.8,2.1-2.7C75.8,67.1,76.4,66.5,70.3,58.6L70.3,58.6z M68.4,48.2l24.7,14l25.7-12.2L93.2,59
		L68.4,48.2L68.4,48.2z M72.1,84.4c-5.2,1.8-10.2,3.8-14.8,6c-0.5-0.3-1-0.6-1.4-1c3.6-2.9,6.8-6.1,9.9-9.5
		c-7.9-3.7-17.6-4.2-23.8,0C35.7,84.1,37,92.1,45,97.1c7.9,5,19.5,5.5,25.7,1.9C76.9,95.3,77,89.5,72.1,84.4L72.1,84.4z M115,48.8
		c6.3-2.3,12.5-4.9,18.5-7.9c0.5,0.4,0.9,0.9,1.4,1.3c-5,3.9-9.5,7.9-13.6,12c7.6,4.3,17.4,4.9,25.8,0c8.4-4.9,11.2-15.4,3.7-23
		c-7.5-7.6-22.8-8.6-31.4-2.8C110.8,34.1,110.1,42.2,115,48.8L115,48.8z M62.5,49.3c-4.3-4.9-9.1-9.8-14.4-14.7
		c0.5-0.3,0.9-0.7,1.4-1.1c6.3,4.1,12.8,7.8,19.3,11.3c4.9-5.9,4.1-14.1-4.9-21.5c-9-7.4-24.9-9.4-32.8-3
		c-7.8,6.4-4.6,17.9,4.4,24.5C44.6,51.4,54.8,52.4,62.5,49.3L62.5,49.3z M118.8,84c3,3.8,6.3,7.4,9.8,10.8c-0.4,0.2-0.9,0.5-1.4,0.7
		c-4.6-2.8-9.4-5.5-14.6-8.1c-4.7,4.3-4.5,10.1,1.7,14.5c6.1,4.5,17.3,5.5,24.8,1.8c7.5-3.8,8.6-11.3,2.6-16.3
		C135.7,82.5,126.3,81.5,118.8,84z"/>
	<path class="st1" d="M39.9,85.3c-0.3,3.3,1.9,6.9,6.4,9.6c7.3,4.3,17.9,4.8,23.5,1.6c3.5-1.9,4.9-4.6,4.4-7.4
		c-0.2,2.1-1.7,4.1-4.4,5.6c-5.7,3.2-16.2,2.7-23.5-1.6C42.5,90.9,40.3,88.1,39.9,85.3L39.9,85.3z M62.4,25.1
		c-0.3-0.3-0.6-0.5-0.9-0.8C53.8,18,40,16.3,33.2,21.8c-6.8,5.5-4,15.5,3.8,21.1c-6.3-5.8-8.1-14.5-1.9-19.6
		C41.6,18,54.5,19.4,62.4,25.1L62.4,25.1z M129.4,43.1c1-0.5,2-0.9,3.1-1.4l0,0C131.4,42.2,130.4,42.7,129.4,43.1L129.4,43.1z
		 M142.8,53.5c0.4-0.2,0.7-0.4,1.1-0.6c7.1-4.1,9.5-13.1,3.2-19.5c-5.5-5.6-16-6.9-23.4-4c7.5-3.9,19.2-2.8,25.2,3.2
		c6.4,6.4,3.9,15.4-3.2,19.5C144.8,52.7,143.8,53.1,142.8,53.5L142.8,53.5z M111.9,95.2c0.5,1.8,1.9,3.5,4,5.1
		c5.4,3.9,15.1,4.8,21.7,1.5c5.4-2.7,7-7.8,4.4-11.9c1.1,3.7-0.7,7.6-5.3,9.9c-6.5,3.3-16.3,2.3-21.7-1.5
		C113.6,97.4,112.6,96.3,111.9,95.2z"/>
	<path class="st1" d="M82.9,154.2v-9.5c0-1.5,0.6-2.5,1.7-3.1c1.2-0.6,3.3-0.8,6.4-0.8h14.5v3.7H92c-1,0.1-1.5,0.3-1.7,0.8v7.6
		c0,0.6,0.2,1.1,0.7,1.3c0.3,0.1,0.8,0.2,1.5,0.2c0,0,0.2,0,0.6,0h12.3v3.7H89.9c-0.8,0-1.7-0.1-2.6-0.3
		C84.3,157.2,82.9,156,82.9,154.2L82.9,154.2z M5.9,114.1h10.7l10,16.6l10.3-16.6h10.6l-13.8,20.8c-1.3,2-3.6,2.9-7,2.9
		c-3.4,0-5.8-1-7-2.9L5.9,114.1L5.9,114.1z M49.8,137.5v-23.4h10.1v23.4H49.8L49.8,137.5z M65.5,118.7c0-0.4,0.1-0.8,0.3-1.2
		c1.2-2.3,4.3-3.4,9.3-3.4h20.5v5l-17.7,0.1c-1.5,0-2.2,0.4-2.2,1.1v1.6c0,0.2,0,0.3,0.1,0.3c0.2,0.6,1.1,1,2.5,1c0.1,0,0.3,0,0.6,0
		h7.3c2.2,0,4.1,0.3,5.7,0.8c2.5,0.8,3.7,2,3.7,3.8v4.7c0,1.9-1.3,3.2-3.8,4.1c-1.7,0.6-3.8,0.8-6.2,0.8H65.5v-5.1h17.5
		c1.6-0.3,2.3-0.7,2.3-1.4v-1.7c0-0.6-0.7-1-2.1-1.1h-8.4c-3.4,0-6-0.7-7.9-2.1c-1-0.8-1.6-1.6-1.6-2.5V118.7L65.5,118.7z
		 M98.8,119.1v-5H129v5h-10.1v18.4h-10.1v-18.4H98.8L98.8,119.1z M132.8,119.1c0-0.4,0.1-0.8,0.3-1.2c1.1-2.5,4.5-3.8,10.3-3.8h11.9
		c7,0,10.5,1.7,10.5,5v13.3c0,3.4-3.5,5.1-10.5,5.1h-11.8c-3.2,0-5.6-0.3-7.2-0.9c-1.6-0.6-2.6-1.6-3.1-3c-0.2-0.4-0.3-0.8-0.3-1.2
		L132.8,119.1L132.8,119.1z M142.8,120.7l0.1,10.1c0,1.1,1.1,1.6,3.3,1.6h6.2c2.2,0,3.3-0.5,3.3-1.4v-10.3c0-1.1-1.1-1.6-3.3-1.6
		h-6.2C144,119.1,142.8,119.6,142.8,120.7L142.8,120.7z M109.2,154.5v-9.9c0-0.2,0-0.5,0.1-0.8c0.6-2,3-3,7-3h15.3v3.7h-13.4
		c-0.1,0-0.3,0.1-0.5,0.1c-0.8,0.2-1.2,0.5-1.2,1v1.9h15.1v3.7h-15.1v1.9c0,0.7,0.6,1.1,1.9,1.1h13.2v3.7h-14.3
		C112,158.1,109.2,156.9,109.2,154.5L109.2,154.5z M117.9,139.8l5,0l3.6-2.6l-5.8,0L117.9,139.8L117.9,139.8z M135.9,153.8v-12.9
		h7.4v12.8c0.1,0.4,1,0.7,2.5,0.7h5c1.5,0,2.3-0.2,2.5-0.6l0-0.1v-12.8h7.4v12.9c0,1.1-0.3,1.9-0.8,2.4c-1.3,1.3-3.6,1.9-7,1.9h-9.5
		c-3.5,0-5.9-0.7-7.1-2.1C136.1,155.6,135.9,154.8,135.9,153.8z"/>
</g>
</svg>
